<svg width="45" height="45" viewBox="0 0 45 45" fill="none" xmlns="http://www.w3.org/2000/svg">
<path d="M37.9061 5.021H6.20281C5.44038 5.021 4.82441 5.64569 4.82441 6.41891V38.5709C4.82441 39.3441 5.44038 39.9688 6.20281 39.9688H37.9061C38.6685 39.9688 39.2845 39.3441 39.2845 38.5709V6.41891C39.2845 5.64569 38.6685 5.021 37.9061 5.021ZM33.926 15.2214H31.1735C29.0154 15.2214 28.5976 16.2611 28.5976 17.79V21.1581H33.7493L33.0774 26.4309H28.5976V39.9688H23.2261V26.4353H18.7334V21.1581H23.2261V17.2702C23.2261 12.7576 25.9441 10.2981 29.9157 10.2981C31.8196 10.2981 33.4521 10.4423 33.9303 10.5078V15.2214H33.926Z" fill="black"/>
</svg>
