<svg width="36" height="37" viewBox="0 0 36 37" fill="none" xmlns="http://www.w3.org/2000/svg">
<path d="M30.7113 3.99109H5.02547C4.40775 3.99109 3.90869 4.49721 3.90869 5.12367V31.173C3.90869 31.7995 4.40775 32.3056 5.02547 32.3056H30.7113C31.329 32.3056 31.8281 31.7995 31.8281 31.173V5.12367C31.8281 4.49721 31.329 3.99109 30.7113 3.99109ZM27.4866 12.2554H25.2566C23.5081 12.2554 23.1696 13.0978 23.1696 14.3365V17.0653H27.3435L26.7991 21.3373H23.1696V32.3056H18.8177V21.3408H15.1777V17.0653H18.8177V13.9153C18.8177 10.2592 21.0198 8.26658 24.2375 8.26658C25.7801 8.26658 27.1027 8.38338 27.4901 8.43647V12.2554H27.4866Z" fill="white"/>
</svg>
