<svg width="34" height="33" viewBox="0 0 34 33" fill="none" xmlns="http://www.w3.org/2000/svg">
<path d="M30.1443 13.966C30.3139 14.8667 30.4062 15.8085 30.4062 16.7912C30.4062 24.4784 25.2179 29.9444 17.3817 29.9444C15.5996 29.945 13.8349 29.5973 12.1884 28.9213C10.5419 28.2453 9.04586 27.2542 7.78575 26.0047C6.52564 24.7551 5.52618 23.2716 4.84446 21.6389C4.16275 20.0062 3.81215 18.2563 3.81269 16.4892C3.81215 14.7221 4.16275 12.9721 4.84446 11.3394C5.52618 9.70673 6.52564 8.22322 7.78575 6.97368C9.04586 5.72414 10.5419 4.73306 12.1884 4.05706C13.8349 3.38106 15.5996 3.0334 17.3817 3.03394C21.0455 3.03394 24.1069 4.37071 26.4557 6.54127L22.6307 10.3343V10.3247C21.2068 8.97972 19.3997 8.28946 17.3817 8.28946C12.9046 8.28946 9.26566 12.0401 9.26566 16.481C9.26566 20.9205 12.9046 24.6793 17.3817 24.6793C21.4439 24.6793 24.2089 22.3762 24.7768 19.2133H17.3817V13.966H30.1457H30.1443Z" fill="black"/>
</svg>
