<svg width="28" height="28" viewBox="0 0 28 28" fill="none" xmlns="http://www.w3.org/2000/svg">
<path d="M24.7677 11.9093C24.9051 12.6391 24.9799 13.4021 24.9799 14.1984C24.9799 20.4264 20.7764 24.855 14.4275 24.855C12.9837 24.8554 11.5539 24.5737 10.2199 24.0261C8.88594 23.4784 7.67385 22.6754 6.65291 21.663C5.63198 20.6507 4.82222 19.4487 4.2699 18.1259C3.71758 16.8031 3.43352 15.3853 3.43396 13.9536C3.43352 12.5219 3.71758 11.1041 4.2699 9.78133C4.82222 8.45851 5.63198 7.25658 6.65291 6.24421C7.67385 5.23184 8.88594 4.42887 10.2199 3.88117C11.5539 3.33348 12.9837 3.05181 14.4275 3.05225C17.3959 3.05225 19.8763 4.1353 21.7792 5.89387L18.6802 8.96694V8.95919C17.5266 7.86949 16.0625 7.31025 14.4275 7.31025C10.8002 7.31025 7.85193 10.349 7.85193 13.947C7.85193 17.5438 10.8002 20.5892 14.4275 20.5892C17.7186 20.5892 19.9589 18.7232 20.419 16.1607H14.4275V11.9093H24.7689H24.7677Z" fill="white"/>
</svg>
