<svg width="33" height="33" viewBox="0 0 33 33" fill="none" xmlns="http://www.w3.org/2000/svg">
<path d="M31.932 7.09908C30.8299 7.58332 29.646 7.91051 28.4014 8.0584C29.6856 7.29643 30.6464 6.09718 31.1044 4.68441C29.8979 5.39506 28.5774 5.89527 27.2004 6.16331C26.2744 5.18287 25.0478 4.53302 23.7112 4.31465C22.3746 4.09628 21.0026 4.32161 19.8084 4.95566C18.6141 5.5897 17.6643 6.59699 17.1066 7.82112C16.5488 9.04526 16.4142 10.4178 16.7236 11.7255C14.2789 11.6038 11.8873 10.9737 9.70401 9.87614C7.52075 8.77856 5.59462 7.23802 4.05063 5.3545C3.5227 6.25754 3.21914 7.30455 3.21914 8.41962C3.21856 9.42343 3.46784 10.4119 3.94489 11.2972C4.42193 12.1826 5.11199 12.9375 5.95382 13.495C4.97752 13.4642 4.02275 13.2026 3.16899 12.732V12.8105C3.16889 14.2184 3.66001 15.583 4.55901 16.6727C5.45801 17.7624 6.70952 18.5101 8.10118 18.7889C7.1955 19.032 6.24595 19.0678 5.32427 18.8936C5.71691 20.105 6.48175 21.1644 7.5117 21.9233C8.54166 22.6823 9.78517 23.1028 11.0682 23.1262C8.89022 24.8215 6.20048 25.7412 3.43164 25.7371C2.94116 25.7373 2.45111 25.7089 1.96399 25.6521C4.77453 27.444 8.0462 28.395 11.3875 28.3913C22.6985 28.3913 28.8818 19.1017 28.8818 11.045C28.8818 10.7832 28.8752 10.5189 28.8634 10.2571C30.0661 9.39461 31.1043 8.32656 31.9293 7.103L31.932 7.09908Z" fill="white"/>
</svg>
