<svg width="40" height="39" viewBox="0 0 40 39" fill="none" xmlns="http://www.w3.org/2000/svg">
<path d="M38.7031 8.09156C37.3429 8.68924 35.8816 9.09308 34.3455 9.27562C35.9305 8.33514 37.1163 6.85494 37.6817 5.11121C36.1925 5.98834 34.5627 6.60574 32.8631 6.93657C31.7201 5.72645 30.2062 4.92435 28.5564 4.65483C26.9067 4.3853 25.2133 4.66342 23.7393 5.446C22.2652 6.22858 21.093 7.47184 20.4045 8.98276C19.7161 10.4937 19.5499 12.1877 19.9319 13.8019C16.9144 13.6516 13.9625 12.8739 11.2678 11.5192C8.57306 10.1645 6.19569 8.26305 4.29 5.93828C3.63839 7.05288 3.26371 8.34517 3.26371 9.72146C3.26299 10.9604 3.57067 12.1804 4.15948 13.2732C4.74828 14.366 5.59999 15.2978 6.63905 15.9858C5.43402 15.9478 4.25558 15.6249 3.20181 15.0441V15.141C3.20169 16.8787 3.80786 18.563 4.91747 19.9079C6.02708 21.2529 7.57178 22.1758 9.28947 22.52C8.1716 22.82 6.99961 22.8642 5.862 22.6492C6.34663 24.1444 7.29065 25.4519 8.56189 26.3887C9.83313 27.3254 11.368 27.8445 12.9515 27.8733C10.2634 29.9659 6.94349 31.101 3.52598 31.096C2.92061 31.0961 2.31575 31.0611 1.71451 30.991C5.18348 33.2027 9.2216 34.3765 13.3457 34.3719C27.3065 34.3719 34.9384 22.9061 34.9384 12.9619C34.9384 12.6388 34.9303 12.3125 34.9156 11.9894C36.4001 10.9249 37.6816 9.6066 38.6998 8.0964L38.7031 8.09156V8.09156Z" fill="black"/>
</svg>
