<svg width="52" height="53" viewBox="0 0 52 53" fill="none" xmlns="http://www.w3.org/2000/svg">
<path d="M47.3784 15.3925C47.1237 14.4152 46.6244 13.5239 45.9305 12.8078C45.2365 12.0918 44.3722 11.5762 43.4241 11.3125C39.9341 10.3452 25.9443 10.3452 25.9443 10.3452C25.9443 10.3452 11.9545 10.3452 8.46453 11.3073C7.516 11.5702 6.65127 12.0855 5.95718 12.8017C5.26309 13.5179 4.76407 14.4096 4.51024 15.3874C3.57658 18.989 3.57658 26.5008 3.57658 26.5008C3.57658 26.5008 3.57658 34.0126 4.51024 37.6091C5.02449 39.5951 6.5423 41.1592 8.46453 41.6891C11.9545 42.6564 25.9443 42.6564 25.9443 42.6564C25.9443 42.6564 39.9341 42.6564 43.4241 41.6891C45.3513 41.1592 46.8641 39.5951 47.3784 37.6091C48.312 34.0126 48.312 26.5008 48.312 26.5008C48.312 26.5008 48.312 18.989 47.3784 15.3925ZM21.5007 33.3952V19.6064L33.084 26.4494L21.5007 33.3952Z" fill="black"/>
</svg>
