<svg width="42" height="43" viewBox="0 0 42 43" fill="none" xmlns="http://www.w3.org/2000/svg">
<path d="M38.1559 12.343C37.9495 11.5511 37.545 10.829 36.9828 10.2489C36.4205 9.66874 35.7203 9.25096 34.9521 9.03735C32.1246 8.25366 20.7901 8.25366 20.7901 8.25366C20.7901 8.25366 9.45559 8.25366 6.62804 9.03318C5.85954 9.2461 5.15894 9.66365 4.59659 10.2439C4.03424 10.8241 3.62994 11.5466 3.42429 12.3388C2.66785 15.2568 2.66785 21.3428 2.66785 21.3428C2.66785 21.3428 2.66785 27.4289 3.42429 30.3427C3.84094 31.9517 5.07066 33.219 6.62804 33.6483C9.45559 34.432 20.7901 34.432 20.7901 34.432C20.7901 34.432 32.1246 34.432 34.9521 33.6483C36.5135 33.219 37.7392 31.9517 38.1559 30.3427C38.9123 27.4289 38.9123 21.3428 38.9123 21.3428C38.9123 21.3428 38.9123 15.2568 38.1559 12.343ZM17.1899 26.9287V15.757L26.5746 21.3012L17.1899 26.9287Z" fill="white"/>
</svg>
